<svg width="61" height="64" viewBox="0 0 61 64" fill="none" xmlns="http://www.w3.org/2000/svg">
<path d="M3.57247 14.1204C14.8632 11.6916 20.4687 14.9324 29.8745 24.4739C41.6127 13.4466 47.4413 12.1524 57.0322 15.0702C42.1362 -3.90465 19.2865 -4.55574 3.57247 14.1204Z" fill="#B4DEF2"/>
<path d="M48.2515 45.9998C27.9559 -13.2738 -24.271 11.5383 13.1665 45.9557C-10.2825 10.8847 24.7049 4.70653 48.2515 45.9998Z" fill="#1C6EA8"/>
<path d="M48.2518 46C73.4412 2.31433 22.2335 17.724 13.1663 45.9559C24.0374 -1.52841 86.6645 2.86027 48.2518 46Z" fill="#65B6D6"/>
<g filter="url(#filter0_i_74_224)">
<path d="M11.2549 50.3926V50.6274C10.9417 50.6782 10.6624 50.8454 10.417 51.1289C10.2393 51.3405 9.97477 51.8377 9.62354 52.6206L6.65918 59.1968H6.44971L3.49805 52.354C3.14258 51.5288 2.90348 51.0443 2.78076 50.9004C2.66227 50.7565 2.43587 50.6655 2.10156 50.6274V50.3926H6.22754V50.6274H6.08789C5.71549 50.6274 5.46159 50.674 5.32617 50.7671C5.22884 50.8306 5.18018 50.9237 5.18018 51.0464C5.18018 51.1226 5.1971 51.2135 5.23096 51.3193C5.26481 51.4209 5.37907 51.6981 5.57373 52.1509L7.4082 56.4355L9.10938 52.6206C9.3125 52.1593 9.43734 51.8504 9.48389 51.6938C9.53044 51.5373 9.55371 51.404 9.55371 51.2939C9.55371 51.167 9.51986 51.0549 9.45215 50.9575C9.38444 50.8602 9.28499 50.7861 9.15381 50.7354C8.97184 50.6634 8.73063 50.6274 8.43018 50.6274V50.3926H11.2549ZM12.7783 50.1895C13.0534 50.1895 13.2861 50.2868 13.4766 50.4814C13.667 50.6719 13.7622 50.9025 13.7622 51.1733C13.7622 51.4442 13.6649 51.6748 13.4702 51.8652C13.2798 52.0557 13.0492 52.1509 12.7783 52.1509C12.5075 52.1509 12.2769 52.0557 12.0864 51.8652C11.896 51.6748 11.8008 51.4442 11.8008 51.1733C11.8008 50.9025 11.896 50.6719 12.0864 50.4814C12.2769 50.2868 12.5075 50.1895 12.7783 50.1895ZM13.667 53.0649V57.7686C13.667 58.1875 13.7157 58.4562 13.813 58.5747C13.9103 58.689 14.1007 58.7546 14.3843 58.7715V59H11.1787V58.7715C11.4411 58.763 11.6357 58.6868 11.7627 58.543C11.8473 58.4456 11.8896 58.1875 11.8896 57.7686V54.3027C11.8896 53.8838 11.841 53.6172 11.7437 53.5029C11.6463 53.3844 11.458 53.3167 11.1787 53.2998V53.0649H13.667Z" fill="#FC0303"/>
<path d="M18.5483 56.6704H14.8477V55.3564H18.5483V56.6704ZM25.0547 56.0674L27.3906 50.3926H30.8945V50.6274H30.6152C30.3613 50.6274 30.1582 50.6719 30.0059 50.7607C29.9001 50.82 29.8154 50.9194 29.752 51.0591C29.7054 51.1606 29.6821 51.4251 29.6821 51.8525V57.5273C29.6821 57.9674 29.7054 58.2425 29.752 58.3525C29.7985 58.4626 29.8937 58.5599 30.0376 58.6445C30.1815 58.7249 30.374 58.7651 30.6152 58.7651H30.8945V59H26.4004V58.7651H26.6797C26.9336 58.7651 27.1367 58.7207 27.2891 58.6318C27.3949 58.5726 27.4795 58.471 27.543 58.3271C27.5895 58.2256 27.6128 57.959 27.6128 57.5273V51.1479L24.312 59H24.1597L20.8081 51.2051V57.2671C20.8081 57.6903 20.8187 57.9505 20.8398 58.0479C20.8949 58.2594 21.0133 58.4329 21.1953 58.5684C21.3815 58.6995 21.6714 58.7651 22.0649 58.7651V59H19.1196V58.7651H19.2085C19.3989 58.7694 19.5767 58.7397 19.7417 58.6763C19.9067 58.6086 20.0316 58.5197 20.1162 58.4097C20.2008 58.2996 20.2664 58.1452 20.313 57.9463C20.3215 57.8997 20.3257 57.6839 20.3257 57.2988V51.8525C20.3257 51.4167 20.3024 51.1458 20.2559 51.04C20.2093 50.93 20.1141 50.8348 19.9702 50.7544C19.8263 50.6698 19.6338 50.6274 19.3926 50.6274H19.1196V50.3926H22.6362L25.0547 56.0674ZM36.5439 56.5498H33.5034L33.1416 57.3877C33.0231 57.667 32.9639 57.8976 32.9639 58.0796C32.9639 58.3208 33.0612 58.4985 33.2559 58.6128C33.3701 58.6805 33.6515 58.7313 34.1001 58.7651V59H31.2373V58.7651C31.5462 58.7186 31.8001 58.5916 31.999 58.3843C32.1979 58.1727 32.4434 57.7389 32.7354 57.083L35.814 50.2148H35.9346L39.0386 57.2734C39.3348 57.9421 39.5781 58.3631 39.7686 58.5366C39.9124 58.6678 40.1156 58.744 40.3779 58.7651V59H36.2139V58.7651H36.3853C36.7196 58.7651 36.9544 58.7186 37.0898 58.6255C37.1829 58.5578 37.2295 58.4604 37.2295 58.3335C37.2295 58.2573 37.2168 58.179 37.1914 58.0986C37.1829 58.0605 37.1195 57.9019 37.001 57.6226L36.5439 56.5498ZM36.3281 56.0801L35.0459 53.1157L33.7256 56.0801H36.3281ZM46.6367 50.1958L46.7065 53.0649H46.4463C46.3236 52.3455 46.021 51.7679 45.5386 51.332C45.0604 50.8919 44.542 50.6719 43.9834 50.6719C43.5518 50.6719 43.209 50.7882 42.9551 51.021C42.7054 51.2495 42.5806 51.514 42.5806 51.8145C42.5806 52.0049 42.625 52.1742 42.7139 52.3223C42.8366 52.5212 43.0334 52.7179 43.3042 52.9126C43.5031 53.0522 43.9622 53.2998 44.6816 53.6553C45.6888 54.1504 46.368 54.618 46.7192 55.0581C47.0662 55.4982 47.2397 56.0018 47.2397 56.5688C47.2397 57.2882 46.9583 57.9082 46.3955 58.4287C45.8369 58.945 45.126 59.2031 44.2627 59.2031C43.9919 59.2031 43.7358 59.1756 43.4946 59.1206C43.2534 59.0656 42.9508 58.9619 42.5869 58.8096C42.3838 58.7249 42.2166 58.6826 42.0854 58.6826C41.9754 58.6826 41.859 58.7249 41.7363 58.8096C41.6136 58.8942 41.5142 59.0233 41.438 59.1968H41.2031V55.9468H41.438C41.6242 56.8608 41.9818 57.5591 42.5107 58.0415C43.0439 58.5197 43.6174 58.7588 44.231 58.7588C44.7049 58.7588 45.0815 58.6297 45.3608 58.3716C45.6444 58.1134 45.7861 57.813 45.7861 57.4702C45.7861 57.2671 45.7311 57.0703 45.6211 56.8799C45.5153 56.6895 45.3524 56.5096 45.1323 56.3403C44.9123 56.1668 44.5229 55.9425 43.9644 55.6675C43.1815 55.2824 42.6187 54.9544 42.2759 54.6836C41.9331 54.4128 41.6686 54.1102 41.4824 53.7759C41.3005 53.4416 41.2095 53.0734 41.2095 52.6714C41.2095 51.9858 41.4613 51.4019 41.9648 50.9194C42.4684 50.437 43.1032 50.1958 43.8691 50.1958C44.1484 50.1958 44.4193 50.2297 44.6816 50.2974C44.8805 50.3481 45.1217 50.4434 45.4053 50.583C45.693 50.7184 45.894 50.7861 46.0083 50.7861C46.1183 50.7861 46.2051 50.7523 46.2686 50.6846C46.332 50.6169 46.3913 50.4539 46.4463 50.1958H46.6367ZM51.3213 54.8613V57.5273C51.3213 57.9674 51.3446 58.2425 51.3911 58.3525C51.4419 58.4626 51.5371 58.5599 51.6768 58.6445C51.8206 58.7249 52.0132 58.7651 52.2544 58.7651H52.54V59H48.0396V58.7651H48.3252C48.5749 58.7651 48.7759 58.7207 48.9282 58.6318C49.0382 58.5726 49.1229 58.471 49.1821 58.3271C49.2287 58.2256 49.252 57.959 49.252 57.5273V51.8652C49.252 51.4251 49.2287 51.1501 49.1821 51.04C49.1356 50.93 49.0404 50.8348 48.8965 50.7544C48.7568 50.6698 48.5664 50.6274 48.3252 50.6274H48.0396V50.3926H52.54V50.6274H52.2544C52.0047 50.6274 51.8037 50.6719 51.6514 50.7607C51.5413 50.82 51.4546 50.9215 51.3911 51.0654C51.3446 51.167 51.3213 51.4336 51.3213 51.8652V54.3027H54.3618V51.8652C54.3618 51.4251 54.3385 51.1501 54.292 51.04C54.2454 50.93 54.1502 50.8348 54.0063 50.7544C53.8625 50.6698 53.6699 50.6274 53.4287 50.6274H53.1494V50.3926H57.6436V50.6274H57.3643C57.1104 50.6274 56.9093 50.6719 56.7612 50.7607C56.6512 50.82 56.5645 50.9215 56.501 51.0654C56.4544 51.167 56.4312 51.4336 56.4312 51.8652V57.5273C56.4312 57.9674 56.4544 58.2425 56.501 58.3525C56.5475 58.4626 56.6427 58.5599 56.7866 58.6445C56.9305 58.7249 57.123 58.7651 57.3643 58.7651H57.6436V59H53.1494V58.7651H53.4287C53.6826 58.7651 53.8836 58.7207 54.0317 58.6318C54.1418 58.5726 54.2285 58.471 54.292 58.3271C54.3385 58.2256 54.3618 57.959 54.3618 57.5273V54.8613H51.3213Z" fill="#1C6EA8"/>
</g>
<defs>
<filter id="filter0_i_74_224" x="2.10156" y="50.1895" width="55.542" height="19.0137" filterUnits="userSpaceOnUse" color-interpolation-filters="sRGB">
<feFlood flood-opacity="0" result="BackgroundImageFix"/>
<feBlend mode="normal" in="SourceGraphic" in2="BackgroundImageFix" result="shape"/>
<feColorMatrix in="SourceAlpha" type="matrix" values="0 0 0 0 0 0 0 0 0 0 0 0 0 0 0 0 0 0 127 0" result="hardAlpha"/>
<feOffset dy="10"/>
<feGaussianBlur stdDeviation="5"/>
<feComposite in2="hardAlpha" operator="arithmetic" k2="-1" k3="1"/>
<feColorMatrix type="matrix" values="0 0 0 0 0 0 0 0 0 0 0 0 0 0 0 0 0 0 0.25 0"/>
<feBlend mode="normal" in2="shape" result="effect1_innerShadow_74_224"/>
</filter>
</defs>
</svg>
